<?xml version="1.0" encoding="utf-8"?><svg viewBox="0 0 23 23" xmlns="http://www.w3.org/2000/svg" xmlns:xlink="http://www.w3.org/1999/xlink"><style>:root>svg{display:none}:root>svg:target{display:block}</style><svg viewBox="0 0 12 15" id="date-next" xmlns="http://www.w3.org/2000/svg"><path d="M11.49 6.679a1 1 0 010 1.732l-9.699 5.6a1 1 0 01-1.5-.867V1.946a1 1 0 011.5-.866l9.699 5.599z"/></svg><svg viewBox="0 0 12 15" id="date-prev" xmlns="http://www.w3.org/2000/svg"><path d="M.51 8.321a1 1 0 010-1.732l9.7-5.6a1 1 0 011.5.867v11.198a1 1 0 01-1.5.867l-9.7-5.6z"/></svg><svg viewBox="0 0 14 11" id="icon-check" xmlns="http://www.w3.org/2000/svg"><path d="M13 1.5L4.75 9.75 1 6"/></svg><svg viewBox="0 0 12 12" id="plus" xmlns="http://www.w3.org/2000/svg"><path d="M5.5.5v11M11.5 6.5H.5"/></svg><svg viewBox="0 0 23 23" id="test" xmlns="http://www.w3.org/2000/svg"><circle cx="11.5" cy="11.5" r="11.5"/><path d="M11.5 5v12M18 11.5H6"/></svg></svg>